<svg version="1.2" xmlns="http://www.w3.org/2000/svg" viewBox="0 0 175 265" width="175" height="265"><defs><clipPath clipPathUnits="userSpaceOnUse" id="cp1"><path d="m170.13 42.01l-42.25-37.98-37.65 41.88 42.25 37.97z"/></clipPath></defs><style>.a{fill:#111}.b{fill:#ef3a5d}.c{fill:#fff}.d{opacity:.8;fill:#fff}</style><path class="a" d="m0.5 0.4h173.6v264l-86.8-25.2-86.8 25.2z"/><path fill-rule="evenodd" class="b" d="m38 66.9v-19.8h32.3v69.6h-22.2v-49.8zm51.1 11.5q-3.8-2.2-6-5.7-2.1-3.6-2.1-8.6 0-5.1 2.8-9.3 2.7-4.2 8.3-6.7 5.7-2.6 14-2.6 8.3 0 13.9 2.6 5.7 2.5 8.5 6.7 2.8 4.2 2.8 9.3 0 5-2.2 8.6-2.1 3.5-5.9 5.7 9.6 5.6 9.6 16.8 0 7.3-3.6 12.3-3.6 5.1-9.7 7.6-6.1 2.6-13.4 2.6-7.2 0-13.3-2.6-6.1-2.5-9.7-7.6-3.6-5-3.6-12.3 0-11.2 9.6-16.8zm21.4-10.8q0-2.6-1.2-4.2-1.3-1.6-3.2-1.6-1.9 0-3.1 1.6-1.2 1.6-1.2 4.2 0 2.8 1.2 4.2 1.2 1.5 3.1 1.5 1.9 0 3.2-1.5 1.2-1.4 1.2-4.2zm-4.4 19.8q-2.8 0-4.5 1.9-1.7 1.9-1.7 4.7 0 2.9 1.7 4.7 1.6 1.8 4.5 1.8 3 0 4.6-1.8 1.6-1.8 1.6-4.7 0-2.8-1.7-4.7-1.6-1.9-4.5-1.9z"/><path fill-rule="evenodd" class="c" d="m38 166.8v-19.8h32.3v69.6h-22.2v-49.8zm51.1 11.6q-3.8-2.2-6-5.8-2.1-3.6-2.1-8.5 0-5.2 2.8-9.4 2.7-4.1 8.3-6.6 5.7-2.6 14-2.6 8.3 0 13.9 2.6 5.7 2.5 8.5 6.6 2.8 4.2 2.8 9.4 0 4.9-2.2 8.5-2.1 3.6-5.9 5.8 9.6 5.6 9.6 16.8 0 7.2-3.6 12.3-3.6 5-9.7 7.6-6.1 2.6-13.4 2.6-7.2 0-13.3-2.6-6.1-2.6-9.7-7.6-3.6-5.1-3.6-12.3 0-11.2 9.6-16.8zm21.4-10.8q0-2.7-1.2-4.2-1.3-1.6-3.2-1.6-1.9 0-3.1 1.6-1.2 1.5-1.2 4.2 0 2.8 1.2 4.2 1.2 1.4 3.1 1.4 1.9 0 3.2-1.4 1.2-1.4 1.2-4.2zm-4.4 19.8q-2.8 0-4.5 1.9-1.7 1.8-1.7 4.7 0 2.8 1.7 4.6 1.6 1.8 4.5 1.8 3 0 4.6-1.8 1.6-1.8 1.6-4.6 0-2.9-1.7-4.7-1.6-1.9-4.5-1.9z"/><path fill-rule="evenodd" class="d" d="m46.7 123.1v10.7q0 1.5 0.7 2.3 0.7 0.8 2.1 0.8 1.5 0 2.2-0.8 0.7-0.8 0.7-2.3v-10.7h5.1v10.7q0 2.6-1 4.4-1.1 1.7-3 2.7-1.8 0.8-4.1 0.8-2.2 0-4-0.8-1.7-1-2.8-2.7-1-1.8-1-4.4v-10.7zm31.8 18.5h-5.1l-6.9-10.4v10.4h-5.1v-18.5h5.1l6.9 10.5v-10.5h5.1zm11.3-18.5q2.9 0 5.1 1.2 2.2 1.2 3.3 3.3 1.2 2.1 1.2 4.8 0 2.6-1.2 4.7-1.2 2.1-3.4 3.3-2.1 1.2-5 1.2h-7.3v-18.5zm-0.4 14q2.2 0 3.5-1.3 1.3-1.2 1.3-3.4 0-2.3-1.3-3.5-1.3-1.3-3.5-1.3h-1.8v9.5zm18.5-9.8v3h5.9v3.9h-5.9v3.3h6.7v4.1h-11.8v-18.5h11.8v4.2zm19.6 14.3l-3.7-6.8h-0.5v6.8h-5.1v-18.5h8q2.3 0 3.8 0.8 1.6 0.8 2.3 2.2 0.8 1.3 0.8 3 0 1.8-1 3.3-1 1.4-3 2l4.1 7.2zm-4.2-10.3h2.6q1 0 1.5-0.5 0.6-0.5 0.6-1.4 0-0.9-0.6-1.4-0.5-0.6-1.5-0.6h-2.6z"/><g clip-path="url(#cp1)"><path class="b" d="m126.1 28.4q-0.3 0.8-0.6 1.7-0.2 0.4-0.4 0.9c-0.5 1.7-1.1 3.4-1.7 5q-0.5 1.5-1.1 3.1l-0.6 1.5-0.6 1.5q-0.2 0.4-0.5 0.8-0.1 0.2-0.2 0.3-0.2 0.1-0.4 0.2c-0.4 0-0.6-0.3-0.6-0.7q0.1-0.5 0.3-0.9 0.5-0.8 0.8-1.8 0.3-0.9 0.6-1.8c0.1-0.4 0.2-0.8 0.4-1.1 0.5-1 0.8-2.1 1.3-3.1 0.3-0.8 0.6-1.6 0.9-2.3l0.8-2.1q0.5-1.1 0.9-2.1 0.2-0.4 0.4-0.8 0.2-0.3 0.5-0.6c0.1-0.2 0.3-0.2 0.2 0.1q0 0.6-0.1 1.2 0 0.2-0.1 0.5-0.1 0.2-0.2 0.5z"/><path class="b" d="m140.8 39l-0.6 0.5-0.6 0.6q-0.3 0.2-0.6 0.5-0.4 0.4-0.8 0.8l-0.8 0.8-1.6 1.6-1.9 2-1.9 2q-0.3 0.3-0.6 0.6-0.2 0.1-0.4 0.1-0.1 0-0.3 0c-0.3-0.1-0.4-0.4-0.2-0.7q0.2-0.3 0.5-0.6 1.2-1.2 2.3-2.5 0.2-0.4 0.6-0.7c0.8-0.6 1.4-1.3 2.1-2 0.5-0.5 1.1-1 1.6-1.5q1.4-1.2 2.9-2.5 0.6-0.4 1.3-0.7c0.2-0.1 0.3 0.1 0.2 0.3q-0.3 0.4-0.6 0.8-0.3 0.3-0.6 0.6z"/><path class="b" d="m146.7 55q-0.7 0.1-1.4 0.2-0.4 0-0.7 0.1-1 0.2-1.9 0.5-1 0.2-1.9 0.4-1.2 0.3-2.4 0.6l-2.3 0.5q-0.4 0-0.7 0c-0.3 0-0.5-0.2-0.6-0.4-0.3-0.4-0.2-0.8 0.1-1q0.3-0.1 0.6-0.2 1.5-0.2 2.9-0.7c0.2-0.1 0.5-0.2 0.7-0.2 0.9 0 1.7-0.3 2.6-0.3 0.6-0.1 1.2-0.2 1.8-0.3q0.9-0.1 1.7-0.2l1.7-0.2q0.6-0.1 1.3 0.2 0 0 0.1 0.1 0 0 0 0.1 0 0.1 0 0.1-0.1 0.1-0.1 0.1-0.4 0.2-0.8 0.4-0.4 0.1-0.7 0.2z"/><path class="b" d="m140.2 67.1q-0.1 0-0.3-0.1l-0.4-0.1q-0.1-0.1-0.3-0.2-0.6 0-1.1-0.1-0.5-0.1-1-0.3-0.6-0.1-1.3-0.3l-1.2-0.3q-0.2-0.1-0.3-0.2c-0.2-0.1-0.2-0.3-0.2-0.5 0-0.4 0.2-0.7 0.4-0.7q0.2-0.1 0.3 0 0.8 0.4 1.6 0.4c0.1 0 0.3 0 0.4 0.1 0.4 0.3 0.9 0.3 1.3 0.5 0.3 0.1 0.6 0.2 0.9 0.3q0.9 0.3 1.7 0.7 0.4 0.2 0.6 0.5 0 0 0 0.1 0 0 0 0.1 0 0-0.1 0 0 0.1 0 0.1-0.2 0-0.3 0-0.1 0.1-0.3 0.1-0.2-0.1-0.3-0.1z"/><path class="b" d="m108.5 34.8q0.1 0.4 0.2 0.9 0.1 0.2 0.2 0.4 0.3 0.6 0.5 1.1 0.3 0.6 0.5 1.2 0.2 0.7 0.4 1.5 0.2 0.7 0.3 1.5 0.1 0.2 0 0.5c0 0.1-0.2 0.2-0.4 0.3-0.3 0.2-0.6 0.1-0.7 0q-0.1-0.2-0.1-0.4-0.1-0.9-0.5-1.8c0-0.1-0.1-0.3-0.1-0.4 0-0.6-0.3-1-0.4-1.5q-0.1-0.3-0.1-0.6-0.1-0.3-0.2-0.5-0.3-1-0.7-2-0.1-0.4 0-0.9c0.1-0.1 0.2-0.1 0.4-0.1l0.1 0.1q0 0 0.1 0v0.1q0.1 0.1 0.2 0.2 0.1 0.1 0.2 0.2 0 0.1 0.1 0.2z"/></g></svg>